<?xml version="1.0" encoding="utf-8" standalone="no"?>
<!DOCTYPE svg PUBLIC "-//W3C//DTD SVG 1.1//EN" "http://www.w3.org/Graphics/SVG/1.1/DTD/svg11.dtd">

<svg width="509mm" height="290mm" viewBox="0 0 509 290" xmlns="http://www.w3.org/2000/svg" xmlns:xlink="http://www.w3.org/1999/xlink" version="1.1" style="stroke:black; fill:none; stroke-width:0.5pt; stroke-linejoin:round; text-anchor:middle" font-family="Helvetica, Arial, FreeSans, Sans, sans, sans-serif">

<g>

<rect x="0" y="0" width="509.0" height="290.0" fill="black" stroke="none" />

<circle cx="38.875" cy="23.125" r="7.5" fill="white" stroke="none" />

<circle cx="57.625" cy="41.875" r="7.5" fill="white" stroke="none" />

<circle cx="38.875" cy="60.625" r="7.5" fill="white" stroke="none" />

<circle cx="57.625" cy="79.375" r="7.5" fill="white" stroke="none" />

<circle cx="38.875" cy="98.125" r="7.5" fill="white" stroke="none" />

<circle cx="57.625" cy="116.875" r="7.5" fill="white" stroke="none" />

<circle cx="38.875" cy="135.625" r="7.5" fill="white" stroke="none" />

<circle cx="57.625" cy="154.375" r="7.5" fill="white" stroke="none" />

<circle cx="38.875" cy="173.125" r="7.5" fill="white" stroke="none" />

<circle cx="57.625" cy="191.875" r="7.5" fill="white" stroke="none" />

<circle cx="38.875" cy="210.625" r="7.5" fill="white" stroke="none" />

<circle cx="57.625" cy="229.375" r="7.5" fill="white" stroke="none" />

<circle cx="38.875" cy="248.125" r="7.5" fill="white" stroke="none" />

<circle cx="57.625" cy="266.875" r="7.5" fill="white" stroke="none" />

<circle cx="76.375" cy="23.125" r="7.5" fill="white" stroke="none" />

<circle cx="95.125" cy="41.875" r="7.5" fill="white" stroke="none" />

<circle cx="76.375" cy="60.625" r="7.5" fill="white" stroke="none" />

<circle cx="95.125" cy="79.375" r="7.5" fill="white" stroke="none" />

<circle cx="76.375" cy="98.125" r="7.5" fill="white" stroke="none" />

<circle cx="95.125" cy="116.875" r="7.5" fill="white" stroke="none" />

<circle cx="76.375" cy="135.625" r="7.5" fill="white" stroke="none" />

<circle cx="95.125" cy="154.375" r="7.5" fill="white" stroke="none" />

<circle cx="76.375" cy="173.125" r="7.5" fill="white" stroke="none" />

<circle cx="95.125" cy="191.875" r="7.5" fill="white" stroke="none" />

<circle cx="76.375" cy="210.625" r="7.5" fill="white" stroke="none" />

<circle cx="95.125" cy="229.375" r="7.5" fill="white" stroke="none" />

<circle cx="76.375" cy="248.125" r="7.5" fill="white" stroke="none" />

<circle cx="95.125" cy="266.875" r="7.5" fill="white" stroke="none" />

<circle cx="113.875" cy="23.125" r="7.5" fill="white" stroke="none" />

<circle cx="132.625" cy="41.875" r="7.5" fill="white" stroke="none" />

<circle cx="113.875" cy="60.625" r="7.5" fill="white" stroke="none" />

<circle cx="132.625" cy="79.375" r="7.5" fill="white" stroke="none" />

<circle cx="113.875" cy="98.125" r="7.5" fill="white" stroke="none" />

<circle cx="132.625" cy="116.875" r="7.5" fill="white" stroke="none" />

<circle cx="113.875" cy="135.625" r="7.5" fill="white" stroke="none" />

<circle cx="132.625" cy="154.375" r="7.5" fill="white" stroke="none" />

<circle cx="113.875" cy="173.125" r="7.5" fill="white" stroke="none" />

<circle cx="132.625" cy="191.875" r="7.5" fill="white" stroke="none" />

<circle cx="113.875" cy="210.625" r="7.5" fill="white" stroke="none" />

<circle cx="132.625" cy="229.375" r="7.5" fill="white" stroke="none" />

<circle cx="113.875" cy="248.125" r="7.5" fill="white" stroke="none" />

<circle cx="132.625" cy="266.875" r="7.5" fill="white" stroke="none" />

<circle cx="151.375" cy="23.125" r="7.5" fill="white" stroke="none" />

<circle cx="170.125" cy="41.875" r="7.5" fill="white" stroke="none" />

<circle cx="151.375" cy="60.625" r="7.5" fill="white" stroke="none" />

<circle cx="170.125" cy="79.375" r="7.5" fill="white" stroke="none" />

<circle cx="151.375" cy="98.125" r="7.5" fill="white" stroke="none" />

<circle cx="170.125" cy="116.875" r="7.5" fill="white" stroke="none" />

<circle cx="151.375" cy="135.625" r="7.5" fill="white" stroke="none" />

<circle cx="170.125" cy="154.375" r="7.5" fill="white" stroke="none" />

<circle cx="151.375" cy="173.125" r="7.5" fill="white" stroke="none" />

<circle cx="170.125" cy="191.875" r="7.5" fill="white" stroke="none" />

<circle cx="151.375" cy="210.625" r="7.5" fill="white" stroke="none" />

<circle cx="170.125" cy="229.375" r="7.5" fill="white" stroke="none" />

<circle cx="151.375" cy="248.125" r="7.5" fill="white" stroke="none" />

<circle cx="170.125" cy="266.875" r="7.5" fill="white" stroke="none" />

<circle cx="188.875" cy="23.125" r="7.5" fill="white" stroke="none" />

<circle cx="207.625" cy="41.875" r="7.5" fill="white" stroke="none" />

<circle cx="188.875" cy="60.625" r="7.5" fill="white" stroke="none" />

<circle cx="207.625" cy="79.375" r="7.5" fill="white" stroke="none" />

<circle cx="188.875" cy="98.125" r="7.5" fill="white" stroke="none" />

<circle cx="207.625" cy="116.875" r="7.5" fill="white" stroke="none" />

<circle cx="188.875" cy="135.625" r="7.5" fill="white" stroke="none" />

<circle cx="207.625" cy="154.375" r="7.5" fill="white" stroke="none" />

<circle cx="188.875" cy="173.125" r="7.5" fill="white" stroke="none" />

<circle cx="207.625" cy="191.875" r="7.5" fill="white" stroke="none" />

<circle cx="188.875" cy="210.625" r="7.5" fill="white" stroke="none" />

<circle cx="207.625" cy="229.375" r="7.5" fill="white" stroke="none" />

<circle cx="188.875" cy="248.125" r="7.5" fill="white" stroke="none" />

<circle cx="207.625" cy="266.875" r="7.5" fill="white" stroke="none" />

<circle cx="226.375" cy="23.125" r="7.5" fill="white" stroke="none" />

<circle cx="245.125" cy="41.875" r="7.5" fill="white" stroke="none" />

<circle cx="226.375" cy="60.625" r="7.5" fill="white" stroke="none" />

<circle cx="245.125" cy="79.375" r="7.5" fill="white" stroke="none" />

<circle cx="226.375" cy="98.125" r="7.5" fill="white" stroke="none" />

<circle cx="245.125" cy="116.875" r="7.5" fill="white" stroke="none" />

<circle cx="226.375" cy="135.625" r="7.5" fill="white" stroke="none" />

<circle cx="245.125" cy="154.375" r="7.5" fill="white" stroke="none" />

<circle cx="226.375" cy="173.125" r="7.5" fill="white" stroke="none" />

<circle cx="245.125" cy="191.875" r="7.5" fill="white" stroke="none" />

<circle cx="226.375" cy="210.625" r="7.5" fill="white" stroke="none" />

<circle cx="245.125" cy="229.375" r="7.5" fill="white" stroke="none" />

<circle cx="226.375" cy="248.125" r="7.5" fill="white" stroke="none" />

<circle cx="245.125" cy="266.875" r="7.5" fill="white" stroke="none" />

<circle cx="263.875" cy="23.125" r="7.5" fill="white" stroke="none" />

<circle cx="282.625" cy="41.875" r="7.5" fill="white" stroke="none" />

<circle cx="263.875" cy="60.625" r="7.5" fill="white" stroke="none" />

<circle cx="282.625" cy="79.375" r="7.5" fill="white" stroke="none" />

<circle cx="263.875" cy="98.125" r="7.5" fill="white" stroke="none" />

<circle cx="282.625" cy="116.875" r="7.5" fill="white" stroke="none" />

<circle cx="263.875" cy="135.625" r="7.5" fill="white" stroke="none" />

<circle cx="282.625" cy="154.375" r="7.5" fill="white" stroke="none" />

<circle cx="263.875" cy="173.125" r="7.5" fill="white" stroke="none" />

<circle cx="282.625" cy="191.875" r="7.5" fill="white" stroke="none" />

<circle cx="263.875" cy="210.625" r="7.5" fill="white" stroke="none" />

<circle cx="282.625" cy="229.375" r="7.5" fill="white" stroke="none" />

<circle cx="263.875" cy="248.125" r="7.5" fill="white" stroke="none" />

<circle cx="282.625" cy="266.875" r="7.5" fill="white" stroke="none" />

<circle cx="301.375" cy="23.125" r="7.5" fill="white" stroke="none" />

<circle cx="320.125" cy="41.875" r="7.5" fill="white" stroke="none" />

<circle cx="301.375" cy="60.625" r="7.5" fill="white" stroke="none" />

<circle cx="320.125" cy="79.375" r="7.5" fill="white" stroke="none" />

<circle cx="301.375" cy="98.125" r="7.5" fill="white" stroke="none" />

<circle cx="320.125" cy="116.875" r="7.5" fill="white" stroke="none" />

<circle cx="301.375" cy="135.625" r="7.5" fill="white" stroke="none" />

<circle cx="320.125" cy="154.375" r="7.5" fill="white" stroke="none" />

<circle cx="301.375" cy="173.125" r="7.5" fill="white" stroke="none" />

<circle cx="320.125" cy="191.875" r="7.5" fill="white" stroke="none" />

<circle cx="301.375" cy="210.625" r="7.5" fill="white" stroke="none" />

<circle cx="320.125" cy="229.375" r="7.5" fill="white" stroke="none" />

<circle cx="301.375" cy="248.125" r="7.5" fill="white" stroke="none" />

<circle cx="320.125" cy="266.875" r="7.5" fill="white" stroke="none" />

<circle cx="338.875" cy="23.125" r="7.5" fill="white" stroke="none" />

<circle cx="357.625" cy="41.875" r="7.5" fill="white" stroke="none" />

<circle cx="338.875" cy="60.625" r="7.5" fill="white" stroke="none" />

<circle cx="357.625" cy="79.375" r="7.5" fill="white" stroke="none" />

<circle cx="338.875" cy="98.125" r="7.5" fill="white" stroke="none" />

<circle cx="357.625" cy="116.875" r="7.5" fill="white" stroke="none" />

<circle cx="338.875" cy="135.625" r="7.5" fill="white" stroke="none" />

<circle cx="357.625" cy="154.375" r="7.5" fill="white" stroke="none" />

<circle cx="338.875" cy="173.125" r="7.5" fill="white" stroke="none" />

<circle cx="357.625" cy="191.875" r="7.5" fill="white" stroke="none" />

<circle cx="338.875" cy="210.625" r="7.5" fill="white" stroke="none" />

<circle cx="357.625" cy="229.375" r="7.5" fill="white" stroke="none" />

<circle cx="338.875" cy="248.125" r="7.5" fill="white" stroke="none" />

<circle cx="357.625" cy="266.875" r="7.5" fill="white" stroke="none" />

<circle cx="376.375" cy="23.125" r="7.5" fill="white" stroke="none" />

<circle cx="395.125" cy="41.875" r="7.5" fill="white" stroke="none" />

<circle cx="376.375" cy="60.625" r="7.5" fill="white" stroke="none" />

<circle cx="395.125" cy="79.375" r="7.5" fill="white" stroke="none" />

<circle cx="376.375" cy="98.125" r="7.5" fill="white" stroke="none" />

<circle cx="395.125" cy="116.875" r="7.5" fill="white" stroke="none" />

<circle cx="376.375" cy="135.625" r="7.5" fill="white" stroke="none" />

<circle cx="395.125" cy="154.375" r="7.5" fill="white" stroke="none" />

<circle cx="376.375" cy="173.125" r="7.5" fill="white" stroke="none" />

<circle cx="395.125" cy="191.875" r="7.5" fill="white" stroke="none" />

<circle cx="376.375" cy="210.625" r="7.5" fill="white" stroke="none" />

<circle cx="395.125" cy="229.375" r="7.5" fill="white" stroke="none" />

<circle cx="376.375" cy="248.125" r="7.5" fill="white" stroke="none" />

<circle cx="395.125" cy="266.875" r="7.5" fill="white" stroke="none" />

<circle cx="413.875" cy="23.125" r="7.5" fill="white" stroke="none" />

<circle cx="432.625" cy="41.875" r="7.5" fill="white" stroke="none" />

<circle cx="413.875" cy="60.625" r="7.5" fill="white" stroke="none" />

<circle cx="432.625" cy="79.375" r="7.5" fill="white" stroke="none" />

<circle cx="413.875" cy="98.125" r="7.5" fill="white" stroke="none" />

<circle cx="432.625" cy="116.875" r="7.5" fill="white" stroke="none" />

<circle cx="413.875" cy="135.625" r="7.5" fill="white" stroke="none" />

<circle cx="432.625" cy="154.375" r="7.5" fill="white" stroke="none" />

<circle cx="413.875" cy="173.125" r="7.5" fill="white" stroke="none" />

<circle cx="432.625" cy="191.875" r="7.5" fill="white" stroke="none" />

<circle cx="413.875" cy="210.625" r="7.5" fill="white" stroke="none" />

<circle cx="432.625" cy="229.375" r="7.5" fill="white" stroke="none" />

<circle cx="413.875" cy="248.125" r="7.5" fill="white" stroke="none" />

<circle cx="432.625" cy="266.875" r="7.5" fill="white" stroke="none" />

<circle cx="451.375" cy="23.125" r="7.5" fill="white" stroke="none" />

<circle cx="470.125" cy="41.875" r="7.5" fill="white" stroke="none" />

<circle cx="451.375" cy="60.625" r="7.5" fill="white" stroke="none" />

<circle cx="470.125" cy="79.375" r="7.5" fill="white" stroke="none" />

<circle cx="451.375" cy="98.125" r="7.5" fill="white" stroke="none" />

<circle cx="470.125" cy="116.875" r="7.5" fill="white" stroke="none" />

<circle cx="451.375" cy="135.625" r="7.5" fill="white" stroke="none" />

<circle cx="470.125" cy="154.375" r="7.5" fill="white" stroke="none" />

<circle cx="451.375" cy="173.125" r="7.5" fill="white" stroke="none" />

<circle cx="470.125" cy="191.875" r="7.5" fill="white" stroke="none" />

<circle cx="451.375" cy="210.625" r="7.5" fill="white" stroke="none" />

<circle cx="470.125" cy="229.375" r="7.5" fill="white" stroke="none" />

<circle cx="451.375" cy="248.125" r="7.5" fill="white" stroke="none" />

<circle cx="470.125" cy="266.875" r="7.5" fill="white" stroke="none" />

</g>

</svg>

